<?xml version="1.0" encoding="utf-8"?>
<!-- Generator: Adobe Illustrator 22.1.0, SVG Export Plug-In . SVG Version: 6.00 Build 0)  -->
<svg version="1.1" id="圖層_1" xmlns="http://www.w3.org/2000/svg" xmlns:xlink="http://www.w3.org/1999/xlink" x="0px" y="0px"
	 viewBox="0 0 318 36" style="enable-background:new 0 0 318 36;" xml:space="preserve">
<style type="text/css">
	.st0{fill:url(#SVGID_1_);}
	.st1{fill:#495AFF;}
	.st2{fill:#F43B47;}
</style>
<linearGradient id="SVGID_1_" gradientUnits="userSpaceOnUse" x1="0" y1="35.9998" x2="1" y2="35.9998" gradientTransform="matrix(-120.3295 0 0 1 209.3365 -30.9929)">
	<stop  offset="0" style="stop-color:#F43B47"/>
	<stop  offset="1" style="stop-color:#495AFF"/>
</linearGradient>
<path class="st0" d="M209.3,0H89c-2.8,0-5,2.2-5,5s2.2,5,5,5h120.3c2.8,0,5-2.2,5-5S212.1,0,209.3,0"/>
<path class="st1" d="M181.3,35H28.6c-2.8,0-5-2.2-5-5s2.2-5,5-5h152.7c2.8,0,5,2.2,5,5S184.1,35,181.3,35z"/>
<path class="st2" d="M312.2,35h-89.3c-2.8,0-5-2.2-5-5s2.2-5,5-5h89.3c2.8,0,5,2.2,5,5S315,35,312.2,35z"/>
<circle id="Oval" class="st2" cx="243" cy="5" r="5"/>
<circle id="Oval-Copy" class="st1" cx="5" cy="31" r="5"/>
<circle id="Oval-Copy-2" class="st2" cx="205" cy="31" r="5"/>
</svg>
