<?xml version="1.0" encoding="utf-8"?>
<!-- Generator: Adobe Illustrator 22.1.0, SVG Export Plug-In . SVG Version: 6.00 Build 0)  -->
<svg version="1.1" id="圖層_1" xmlns="http://www.w3.org/2000/svg" xmlns:xlink="http://www.w3.org/1999/xlink" x="0px" y="0px"
	 viewBox="0 0 39 24" style="enable-background:new 0 0 39 24;" xml:space="preserve">
<style type="text/css">
	.st0{enable-background:new    ;}
	.st1{fill:#FFFFFF;}
</style>
<g class="st0">
	<path class="st1" d="M1.8,23.3c-0.1,0.3-0.4,0.4-0.6,0.1c-0.5-0.8-0.8-1.8-0.2-4c0.9-3.1,7.1-15.3,9.3-18.3
		c0.3-0.4,0.6-0.4,0.9,0.1c0.5,0.8,0.6,2.6-0.8,5.3c-0.9,1.7-2.1,3.8-3.4,6.2c4.7-3.5,9.8-8,13.2-11.7c0.3-0.3,0.5-0.3,0.7,0.1
		c0.2,0.8,0.2,2-1.1,3.8c-1.6,2.2-6.5,6.6-11.4,10c1.2,1.8,2.1,3.5,2.6,4.5c0.9,2.1,0.5,3.3,0,4c-0.2,0.3-0.5,0.3-0.6-0.1
		c-1.4-2.7-3-5.3-4.7-7.8C4.2,17.9,3,20.6,1.8,23.3z"/>
	<path class="st1" d="M14.5,23.4c-0.1,0.4-0.4,0.4-0.6,0.1c-0.5-0.5-0.9-1.8-0.1-3.9c1.3-3.4,7.2-13,11.1-18.3
		C25.2,0.8,25.6,0.6,26,1c1.4,1.2,1.8,2.5,0.9,5.3c-1.2,3.5-2.4,7.7-3.8,12.7C27,12.7,32.2,7.3,36.2,1.2c0.3-0.5,0.6-0.5,1-0.1
		c1.4,1.5,1.1,3.5,0.1,5.3c-2.5,4.7-6.1,12-7.9,17.1c-0.1,0.4-0.3,0.4-0.6,0.1c-0.6-0.5-1-1.5-0.4-3.9c0.5-2.1,2.8-7.2,5.2-11.7
		c-4.1,5-8.3,10.5-10.9,15.3c-0.2,0.4-0.4,0.5-0.6,0.3c-1.2-0.9-1.7-2.1-1.4-4.4c0.3-2.1,1.5-7,3.1-11.8
		C20.7,12.2,16.6,18.6,14.5,23.4z"/>
</g>
</svg>
